<svg width="479" height="362" viewBox="0 0 479 362" fill="none" xmlns="http://www.w3.org/2000/svg"><g clip-path="url(#a)"><path d="M282.9 205H24.5a9.5 9.5 0 0 1-9.2-11.7L49 50.5a13.5 13.5 0 0 1 13.2-10.4h258.4a9.5 9.5 0 0 1 9.2 11.7l-33.8 142.8a13.5 13.5 0 0 1-13.2 10.4Z" fill="#E9D5FF"/><path d="M72.6 144.7c-1 3.8 2 7.5 6 7.5H246c4 0 7.6-2.8 8.5-6.7l22-92.6H94.3l-21.7 91.7Z" fill="#D9E1EC"/><path d="M270.6 45.3H103c-4 0-7.6 2.8-8.5 6.8l-.2.8h182.3c.9-3.9-2-7.6-6-7.6Z" fill="#379986"/><path d="M244.6 68h-93.2a1.7 1.7 0 0 0 0 3.4h93.2a1.7 1.7 0 0 0 0-3.3ZM240 75.9h-93.3a1.7 1.7 0 0 0 0 3.4H240a1.7 1.7 0 0 0 0-3.4ZM215.6 83.6h-93.2a1.7 1.7 0 0 0 0 3.4h93.2a1.7 1.7 0 0 0 0-3.4Z" fill="#59C7B2"/><path d="M235.9 91.4h-93.2a1.7 1.7 0 0 0 0 3.4h93.2a1.7 1.7 0 0 0 0-3.4ZM197.8 99.1h-93.3a1.7 1.7 0 0 0 0 3.4h93.3a1.7 1.7 0 0 0 0-3.4Z" fill="#C084FC"/><path d="M286.8 197.9H22l-1.8-2.7 280.4-66.7 1.9 2.7-15.8 66.7Z" fill="#379986"/><path d="M285 195.2H20.2L36 128.5h264.6L285 195.2Z" fill="#59C7B2"/><path d="M247 142h-25.5l-3 13H244l3-13Z" fill="#D8B4FE"/><path d="m272.3 195.2 15.8-66.7M259.7 195.2l15.8-66.7M247 195.2l15.9-66.7M234.5 195.2l15.8-66.7M221.8 195.2l15.8-66.7M209.2 195.2l15.8-66.7M196.6 195.2l15.8-66.7M184 195.2l15.8-66.7M171.4 195.2l15.8-66.7M158.8 195.2l15.8-66.7M146.1 195.2l15.8-66.7M133.5 195.2l15.8-66.7M121 195.2l15.7-66.7M108.3 195.2l15.8-66.7M95.7 195.2l15.8-66.7M83 195.2 99 128.5M70.4 195.2l15.8-66.7M57.8 195.2l15.8-66.7M45.2 195.2 61 128.5M32.6 195.2l15.8-66.7M297.6 141.9h-265M294.5 154.8H29.8M291.4 168H26.7M288.3 181.1H23.6" stroke="#379986" stroke-width=".8" stroke-miterlimit="10"/><path d="M89.5 310.2h117a37 37 0 0 1 37 37v14.3h-154v-51.3Z" fill="#581C87"/><path d="m144.6 93-7 7.4c-8.7 9-23 9-31.6 0L98.9 93A30.6 30.6 0 0 1 90.4 72V40.2c5-6.1 9-12.9 12.4-20l1-2.2h31.8c9.7 0 17.5 7.9 17.5 17.6v36.3c0 7.9-3 15.4-8.5 21.1Z" fill="#C9885B"/><path d="m137.5 100.4 2.6-2.7-1.6-16-2.7 20.4c.6-.5 1.2-1 1.7-1.7Z" fill="#A55E2F"/><path d="M138.5 81.8H98.3l-3.7 27.5-.8 4 40.1 2.5 4.6-34Z" fill="#C9885B"/><path d="M190.3 171.5a44.1 44.1 0 0 0-26.2-29.3l-21-8.4a15.2 15.2 0 0 1-9.4-16.1l.2-2-40.1-2.4a27.3 27.3 0 0 1-14.2 16.9L58 140.7a40.3 40.3 0 0 0-22 29l-14 78.5 83.6 51.1 105.7-51.1-21.1-76.7Z" fill="#C084FC"/><path d="M95.7 101.3c9.1-6 19.6-9.6 30.4-10.7l11.4-1.1 1-7.7H98.3l-2.6 19.5Z" fill="#A55E2F"/><path d="M159.8 90.1h-74A20.7 20.7 0 0 1 68 58.7c4.9-8 8-17 9-26.4l.2-2.6a33.2 33.2 0 0 1 33-29.7h20.2A26 26 0 0 1 152 40.8l-5 7.2-3.1 20v.1c1 9.7 7 18 16 22Z" fill="#773C28"/><path d="M144 68a20.5 20.5 0 0 1-2.5-17.4l.7-2.3a2.6 2.6 0 0 1 4.9-.3c1 2.5 1.2 5.2.5 7.8L144 68Z" fill="#A55E2F"/><path d="m221.4 216.7 1.5 45.6c.3 9.7-2 19.4-6.7 28a9.6 9.6 0 0 1-15 2.3l-12-11.4-3.2-20.8 25.4-12.2-17-61.4 2.9-26a2.5 2.5 0 0 1 3.3-2c1.8.7 3 2.5 3 4.5v15.6l1 3.4 4.2-9 15.6-33.5a2.6 2.6 0 0 1 4.8 1.9l-10.7 31.9 2.3-1a5.2 5.2 0 0 1 6.8 2l.7 1.4h1c3-.3 5.6 2.1 5.6 5.1l.9.1a6 6 0 0 1 5.3 6v7.3c0 1.8-.6 3.6-1.7 5.1l-3.7 4.8a3.9 3.9 0 0 1-5.6.6l-8.7 11.7Z" fill="#C9885B"/><path d="M27.5 362H17.3l9-51.8h10.2l-9 51.8Z" fill="#E9D5FF"/><path d="M17.3 362H9l9-51.8h8.2l-9 51.8Z" fill="#C084FC"/><path d="M38 361.3c-6-13.1-9.6-27.2-10.8-41.5l-7.8-91.6A13.2 13.2 0 0 1 34.2 214c37.4 4.8 75.2 6 112.8 3.8l21.8-1.4c6.9-.4 13 4.6 13.8 11.5l16 118.3h23a15 15 0 0 1 15 15.1H38Z" fill="#581C87"/><path d="M203.8 362h-10.3l9-51.8h10.3l-9 51.8Z" fill="#E9D5FF"/><path d="M193.5 362h-8.2l9-51.8h8.2l-9 51.8Z" fill="#C084FC"/><path d="m213.6 176 5-2.4M230 183.5l4.9-2.4M222.8 178.9l5.5-3M204.5 182.3l-2.4 5.2M230.1 205l1.7-2.3 7-13.9M235.6 195.2l2.2 2.7M211.4 248.2l2.8 10.1" stroke="#A55E2F" stroke-width=".8" stroke-miterlimit="10"/><path d="m150.7 217.5 14.2-42.2c3-8.6 9-15.8 17-20M47.8 147.9a53.3 53.3 0 0 0-2.3 30.9l8.4 37.4" stroke="#E9D5FF" stroke-width=".8" stroke-linecap="round" stroke-linejoin="round"/><path d="M7.5 295.2H27v15H0v-7.5c0-4.1 3.4-7.5 7.5-7.5ZM218 295.2h-27v15h27v-15Z" fill="#581C87"/><path d="M216.7 295.2H236c4.1 0 7.5 3.4 7.5 7.5v7.5h-27v-15Z" fill="#C084FC"/><path d="M225.8 361.2c39.3-93.8 52.8-70.2 62.1-51 9.4 19.2 14.9-8.1 38.4 3 23.5 11 33.1 0 42.1-7 9-6.9 28.3-4.5 17.3 4a70 70 0 0 1-42.2 13.3c-18 .7-43.5 2.4-76.6 37.8l-41.2-.1Z" fill="#59C7B2"/><path d="M362.9 321c8.2-2.7 16.5-20 25.9-16.3.7 1.3 0 3.2-3.1 5.5-6.7 5.1-14 8.6-22.8 10.8Zm-8 1.5a63 63 0 0 1-26.6-4.5c-15.2-5.6-21.4 11.7-29 9.5-17.8-5.2-14.5-9.5-47.6 33.3l15.3.4c33-35.3 58.6-37 76.6-37.7 4-.2 7.8-.5 11.4-1Z" fill="#379986"/><path d="M345.5 317.8c-4.4-3.7-8.3-8.3-15-7.6-2.3.2-4.7.8-7.1 1.7-14.4 5.6-32.3 23.3-56.4 49.3 33-35.3 58.6-37 76.5-37.7 4.4-.2 8.5-.5 12.4-1.1a16 16 0 0 1-10.4-4.6Z" fill="#59C7B2"/><path d="M355.9 322.4a16 16 0 0 1-10.4-4.6c-4.4-3.7-8.3-8.3-15-7.6-2.3.2-4.7.8-7.1 1.7-14.4 5.6-32.3 23.3-56.4 49.3" stroke="#379986" stroke-width=".8" stroke-linecap="round" stroke-linejoin="round"/><path d="M283.8 361.2c28-28 33.5-23.9 48-17.3 14.5 6.6 30.7-11 42.1-5.5l-32.4 22.8h-57.7Z" fill="#59C7B2"/><path d="M320.8 361.5c20.7-16.3 18.9-.6 42-18.3 11.1-8.4 27.7-2.8 19-1.7-8.5 1-21.3 5.2-28.4 20h-32.6Z" fill="#379986"/><path d="M377.7 361.2c21.8-24 42.7-20.2 54.3-12 15.9 11.3 29.7-7.7 46.6 12H377.7Z" fill="#59C7B2"/><path d="M447.9 361.5c17.6-19.3 30.7-.3 30.7-.3l-30.7.3Z" fill="#379986"/><path d="M440.8 352.8c-11.2-2.7-15-3.6-34 8.7" stroke="#379986" stroke-width=".8" stroke-linecap="round" stroke-linejoin="round"/><path d="M192.6 338.3s-30.8-4.8-48.5 20.7l29-46.8 19.5 26v.1Z" fill="#379986"/><path d="M89.5 361.6c18.8-54.4 45.2-31 66.2-49.4s42.6-44.5 45-25c5.5-3.8 10.2-2.3 5.5 11.7-4.7 14-10.1 52.1-20.5 36.4-20.8-31.5-14 26.3-14 26.3H89.6Z" fill="#59C7B2"/><path d="M174 326.6s-19 2.4-30.9 35h28.7s-3.6-29.9 2.2-35ZM182.4 330.7h-.1c1 1.2 2.2 2.7 3.4 4.6 10.3 15.7 15.6-21.7 20.5-36.4 4.7-14 0-15.5-5.5-11.7 0 0-9 54.6-18.3 43.5Z" fill="#379986"/><path d="M189.7 339c-1.3-.4-2.6-1.5-4-3.7-20.8-31.5-14 26.3-14 26.3" stroke="#59C7B2" stroke-width=".8" stroke-linecap="round" stroke-linejoin="round"/><path d="m296 11 1 3.9a20 20 0 0 0 14.1 14L315 30l-3.9 1a20 20 0 0 0-14 14.1L296 49l-1-3.9a20 20 0 0 0-14.1-14L277 30l3.9-1a20 20 0 0 0 14-14.1L296 11ZM353 77l.6 2c1 3.6 3.8 6.5 7.4 7.4l2 .6-2 .6c-3.6 1-6.5 3.8-7.4 7.4l-.6 2-.6-2c-1-3.6-3.8-6.5-7.4-7.4l-2-.6 2-.6c3.6-1 6.5-3.8 7.4-7.4l.6-2Z" fill="#9333EA"/><path d="m305 62 .8 2.9c1.3 5 5.3 9 10.3 10.3l2.9.8-2.9.8c-5 1.3-9 5.3-10.3 10.3L305 90l-.8-2.9c-1.3-5-5.3-9-10.3-10.3L291 76l2.9-.8c5-1.3 9-5.3 10.3-10.3l.8-2.9Z" fill="#fff"/></g><defs><clipPath id="a"><path fill="#fff" d="M0 0h478.6v362H0z"/></clipPath></defs></svg>