<svg xmlns="http://www.w3.org/2000/svg" xmlns:xlink="http://www.w3.org/1999/xlink" width="850" zoomAndPan="magnify" viewBox="0 0 637.5 89.999999" height="120" preserveAspectRatio="xMidYMid meet" version="1.0"><defs><g/><clipPath id="eeb93dd8f9"><path d="M 1 7 L 80 7 L 80 80.222656 L 1 80.222656 Z M 1 7 " clip-rule="nonzero"/></clipPath></defs><g fill="#6c5ce7" fill-opacity="1"><g transform="translate(85.098134, 72.167395)"><g><path d="M 28.296875 -56.765625 C 32.140625 -56.765625 35.5625 -55.910156 38.5625 -54.203125 C 41.5625 -52.503906 43.953125 -50.179688 45.734375 -47.234375 C 47.515625 -44.285156 48.40625 -40.945312 48.40625 -37.21875 C 48.40625 -33.488281 47.523438 -30.148438 45.765625 -27.203125 C 44.015625 -24.253906 41.625 -21.941406 38.59375 -20.265625 C 35.570312 -18.597656 32.140625 -17.765625 28.296875 -17.765625 L 18.8125 -17.765625 L 18.8125 0 L 6.484375 0 L 6.484375 -56.765625 Z M 27.8125 -29.109375 C 30.25 -29.109375 32.207031 -29.878906 33.6875 -31.421875 C 35.175781 -32.960938 35.921875 -34.894531 35.921875 -37.21875 C 35.921875 -39.601562 35.175781 -41.5625 33.6875 -43.09375 C 32.207031 -44.632812 30.25 -45.40625 27.8125 -45.40625 L 18.8125 -45.40625 L 18.8125 -29.109375 Z M 27.8125 -29.109375 "/></g></g></g><g fill="#6c5ce7" fill-opacity="1"><g transform="translate(131.484353, 72.167395)"><g><path d="M 28.0625 -44.03125 L 31.953125 -44.03125 L 31.953125 -32.84375 L 26.84375 -32.84375 C 23.488281 -32.84375 21.09375 -32.054688 19.65625 -30.484375 C 18.226562 -28.921875 17.515625 -26.351562 17.515625 -22.78125 L 17.515625 0 L 5.671875 0 L 5.671875 -43.796875 L 13.296875 -43.796875 L 15.40625 -38.4375 C 18.382812 -42.164062 22.601562 -44.03125 28.0625 -44.03125 Z M 28.0625 -44.03125 "/></g></g></g><g fill="#6c5ce7" fill-opacity="1"><g transform="translate(160.435143, 72.167395)"><g><path d="M 48.171875 -22.0625 C 48.171875 -20.925781 48.085938 -19.765625 47.921875 -18.578125 L 14.84375 -18.578125 C 15.320312 -15.597656 16.507812 -13.3125 18.40625 -11.71875 C 20.300781 -10.125 22.679688 -9.328125 25.546875 -9.328125 C 27.597656 -9.328125 29.429688 -9.769531 31.046875 -10.65625 C 32.671875 -11.550781 33.921875 -12.785156 34.796875 -14.359375 L 47.28125 -14.359375 C 45.65625 -9.597656 42.894531 -5.8125 39 -3 C 35.113281 -0.1875 30.628906 1.21875 25.546875 1.21875 C 21.222656 1.21875 17.34375 0.207031 13.90625 -1.8125 C 10.476562 -3.84375 7.773438 -6.601562 5.796875 -10.09375 C 3.828125 -13.582031 2.84375 -17.515625 2.84375 -21.890625 C 2.84375 -26.273438 3.828125 -30.207031 5.796875 -33.6875 C 7.773438 -37.175781 10.476562 -39.929688 13.90625 -41.953125 C 17.34375 -43.984375 21.222656 -45 25.546875 -45 C 30.035156 -45 33.984375 -43.957031 37.390625 -41.875 C 40.796875 -39.800781 43.441406 -37.035156 45.328125 -33.578125 C 47.222656 -30.117188 48.171875 -26.28125 48.171875 -22.0625 Z M 25.546875 -34.953125 C 22.898438 -34.953125 20.671875 -34.222656 18.859375 -32.765625 C 17.046875 -31.304688 15.816406 -29.28125 15.171875 -26.6875 L 36.328125 -26.6875 C 34.597656 -32.195312 31.003906 -34.953125 25.546875 -34.953125 Z M 25.546875 -34.953125 "/></g></g></g><g fill="#6c5ce7" fill-opacity="1"><g transform="translate(207.307934, 72.167395)"><g><path d="M 27.078125 -10.546875 L 32.4375 -10.546875 L 32.4375 0 L 24.078125 0 C 19.273438 0 15.476562 -1.390625 12.6875 -4.171875 C 9.90625 -6.960938 8.515625 -10.789062 8.515625 -15.65625 L 8.515625 -34.296875 L 0.5625 -34.296875 L 0.5625 -36.8125 L 17.921875 -55.21875 L 20.109375 -55.21875 L 20.109375 -43.796875 L 32.1875 -43.796875 L 32.1875 -34.296875 L 20.359375 -34.296875 L 20.359375 -17.1875 C 20.359375 -15.082031 20.9375 -13.445312 22.09375 -12.28125 C 23.257812 -11.125 24.921875 -10.546875 27.078125 -10.546875 Z M 27.078125 -10.546875 "/></g></g></g><g fill="#6c5ce7" fill-opacity="1"><g transform="translate(238.123911, 72.167395)"><g><path d="M 27.078125 -10.546875 L 32.4375 -10.546875 L 32.4375 0 L 24.078125 0 C 19.273438 0 15.476562 -1.390625 12.6875 -4.171875 C 9.90625 -6.960938 8.515625 -10.789062 8.515625 -15.65625 L 8.515625 -34.296875 L 0.5625 -34.296875 L 0.5625 -36.8125 L 17.921875 -55.21875 L 20.109375 -55.21875 L 20.109375 -43.796875 L 32.1875 -43.796875 L 32.1875 -34.296875 L 20.359375 -34.296875 L 20.359375 -17.1875 C 20.359375 -15.082031 20.9375 -13.445312 22.09375 -12.28125 C 23.257812 -11.125 24.921875 -10.546875 27.078125 -10.546875 Z M 27.078125 -10.546875 "/></g></g></g><g fill="#6c5ce7" fill-opacity="1"><g transform="translate(268.939887, 72.167395)"><g><path d="M 35.921875 -43.796875 L 48.578125 -43.796875 L 29.4375 -0.5625 C 27.707031 3.382812 25.945312 6.554688 24.15625 8.953125 C 22.375 11.359375 20.347656 13.101562 18.078125 14.1875 C 15.804688 15.269531 13.023438 15.8125 9.734375 15.8125 L 4.859375 15.8125 L 4.859375 5.109375 L 9 5.109375 C 10.894531 5.109375 12.394531 4.890625 13.5 4.453125 C 14.613281 4.023438 15.5625 3.226562 16.34375 2.0625 C 17.125 0.90625 17.972656 -0.78125 18.890625 -3 L 19.0625 -3.328125 L 0.484375 -43.796875 L 13.375 -43.796875 L 25.0625 -16.875 Z M 35.921875 -43.796875 "/></g></g></g><g fill="#6c5ce7" fill-opacity="1"><g transform="translate(313.704206, 72.167395)"><g/></g></g><g fill="#6c5ce7" fill-opacity="1"><g transform="translate(329.031035, 72.167395)"><g><path d="M 37.703125 0 L 26.6875 -19.375 L 18.8125 -19.375 L 18.8125 0 L 6.484375 0 L 6.484375 -56.765625 L 29.4375 -56.765625 C 33.21875 -56.765625 36.59375 -55.953125 39.5625 -54.328125 C 42.539062 -52.710938 44.894531 -50.5 46.625 -47.6875 C 48.351562 -44.875 49.21875 -41.628906 49.21875 -37.953125 C 49.21875 -34.273438 48.285156 -30.988281 46.421875 -28.09375 C 44.554688 -25.207031 42.054688 -23.003906 38.921875 -21.484375 L 51.5 0 Z M 18.8125 -45.40625 L 18.8125 -30.734375 L 28.625 -30.734375 C 31.164062 -30.734375 33.164062 -31.421875 34.625 -32.796875 C 36.082031 -34.179688 36.8125 -35.925781 36.8125 -38.03125 C 36.8125 -40.195312 36.082031 -41.96875 34.625 -43.34375 C 33.164062 -44.71875 31.164062 -45.40625 28.625 -45.40625 Z M 18.8125 -45.40625 "/></g></g></g><g fill="#6c5ce7" fill-opacity="1"><g transform="translate(378.579957, 72.167395)"><g><path d="M 48.171875 -22.0625 C 48.171875 -20.925781 48.085938 -19.765625 47.921875 -18.578125 L 14.84375 -18.578125 C 15.320312 -15.597656 16.507812 -13.3125 18.40625 -11.71875 C 20.300781 -10.125 22.679688 -9.328125 25.546875 -9.328125 C 27.597656 -9.328125 29.429688 -9.769531 31.046875 -10.65625 C 32.671875 -11.550781 33.921875 -12.785156 34.796875 -14.359375 L 47.28125 -14.359375 C 45.65625 -9.597656 42.894531 -5.8125 39 -3 C 35.113281 -0.1875 30.628906 1.21875 25.546875 1.21875 C 21.222656 1.21875 17.34375 0.207031 13.90625 -1.8125 C 10.476562 -3.84375 7.773438 -6.601562 5.796875 -10.09375 C 3.828125 -13.582031 2.84375 -17.515625 2.84375 -21.890625 C 2.84375 -26.273438 3.828125 -30.207031 5.796875 -33.6875 C 7.773438 -37.175781 10.476562 -39.929688 13.90625 -41.953125 C 17.34375 -43.984375 21.222656 -45 25.546875 -45 C 30.035156 -45 33.984375 -43.957031 37.390625 -41.875 C 40.796875 -39.800781 43.441406 -37.035156 45.328125 -33.578125 C 47.222656 -30.117188 48.171875 -26.28125 48.171875 -22.0625 Z M 25.546875 -34.953125 C 22.898438 -34.953125 20.671875 -34.222656 18.859375 -32.765625 C 17.046875 -31.304688 15.816406 -29.28125 15.171875 -26.6875 L 36.328125 -26.6875 C 34.597656 -32.195312 31.003906 -34.953125 25.546875 -34.953125 Z M 25.546875 -34.953125 "/></g></g></g><g fill="#6c5ce7" fill-opacity="1"><g transform="translate(425.45276, 72.167395)"><g><path d="M 21.25 1.21875 C 17.570312 1.21875 14.351562 0.570312 11.59375 -0.71875 C 8.832031 -2.019531 6.679688 -3.847656 5.140625 -6.203125 C 3.609375 -8.554688 2.84375 -11.300781 2.84375 -14.4375 L 14.359375 -14.4375 C 14.410156 -12.488281 15.109375 -11.023438 16.453125 -10.046875 C 17.804688 -9.078125 19.539062 -8.59375 21.65625 -8.59375 C 23.332031 -8.59375 24.789062 -8.957031 26.03125 -9.6875 C 27.269531 -10.414062 27.890625 -11.507812 27.890625 -12.96875 C 27.890625 -14.488281 27.066406 -15.554688 25.421875 -16.171875 C 23.773438 -16.796875 21.789062 -17.296875 19.46875 -17.671875 C 17.738281 -17.941406 15.9375 -18.320312 14.0625 -18.8125 C 12.195312 -19.300781 10.476562 -20.003906 8.90625 -20.921875 C 7.34375 -21.835938 6.0625 -23.109375 5.0625 -24.734375 C 4.0625 -26.359375 3.5625 -28.46875 3.5625 -31.0625 C 3.5625 -33.8125 4.304688 -36.238281 5.796875 -38.34375 C 7.285156 -40.457031 9.335938 -42.09375 11.953125 -43.25 C 14.578125 -44.414062 17.675781 -45 21.25 -45 C 24.757812 -45 27.828125 -44.390625 30.453125 -43.171875 C 33.078125 -41.960938 35.117188 -40.265625 36.578125 -38.078125 C 38.035156 -35.890625 38.765625 -33.332031 38.765625 -30.40625 L 27.484375 -30.40625 C 27.484375 -32.132812 26.898438 -33.429688 25.734375 -34.296875 C 24.578125 -35.160156 22.972656 -35.59375 20.921875 -35.59375 C 19.085938 -35.59375 17.65625 -35.203125 16.625 -34.421875 C 15.59375 -33.640625 15.078125 -32.628906 15.078125 -31.390625 C 15.078125 -29.921875 15.890625 -28.914062 17.515625 -28.375 C 19.140625 -27.84375 21.085938 -27.382812 23.359375 -27 C 25.140625 -26.675781 26.972656 -26.285156 28.859375 -25.828125 C 30.753906 -25.367188 32.515625 -24.675781 34.140625 -23.75 C 35.765625 -22.832031 37.078125 -21.5625 38.078125 -19.9375 C 39.078125 -18.320312 39.578125 -16.191406 39.578125 -13.546875 C 39.578125 -10.566406 38.816406 -7.96875 37.296875 -5.75 C 35.785156 -3.539062 33.648438 -1.828125 30.890625 -0.609375 C 28.140625 0.609375 24.925781 1.21875 21.25 1.21875 Z M 21.25 1.21875 "/></g></g></g><g fill="#6c5ce7" fill-opacity="1"><g transform="translate(463.972757, 72.167395)"><g><path d="M 25.703125 1.21875 C 21.597656 1.21875 17.988281 0.394531 14.875 -1.25 C 11.769531 -2.90625 9.363281 -5.203125 7.65625 -8.140625 C 5.957031 -11.085938 5.109375 -14.535156 5.109375 -18.484375 L 5.109375 -43.796875 L 16.953125 -43.796875 L 16.953125 -19.875 C 16.953125 -16.738281 17.722656 -14.289062 19.265625 -12.53125 C 20.804688 -10.769531 22.953125 -9.890625 25.703125 -9.890625 C 28.460938 -9.890625 30.597656 -10.78125 32.109375 -12.5625 C 33.628906 -14.351562 34.390625 -16.789062 34.390625 -19.875 L 34.390625 -43.796875 L 46.21875 -43.796875 L 46.21875 -18.484375 C 46.21875 -14.535156 45.363281 -11.085938 43.65625 -8.140625 C 41.957031 -5.203125 39.566406 -2.90625 36.484375 -1.25 C 33.410156 0.394531 29.816406 1.21875 25.703125 1.21875 Z M 25.703125 1.21875 "/></g></g></g><g fill="#6c5ce7" fill-opacity="1"><g transform="translate(511.251026, 72.167395)"><g><path d="M 55.46875 -44.84375 C 58.5 -44.84375 61.175781 -44.097656 63.5 -42.609375 C 65.820312 -41.128906 67.644531 -39.085938 68.96875 -36.484375 C 70.289062 -33.890625 70.953125 -30.890625 70.953125 -27.484375 L 70.953125 0 L 59.125 0 L 59.125 -25.546875 C 59.125 -31.492188 56.90625 -34.46875 52.46875 -34.46875 C 49.875 -34.46875 47.832031 -33.519531 46.34375 -31.625 C 44.851562 -29.726562 44.109375 -27.078125 44.109375 -23.671875 L 44.109375 0 L 32.515625 0 L 32.515625 -25.546875 C 32.515625 -31.492188 30.378906 -34.46875 26.109375 -34.46875 C 23.410156 -34.46875 21.300781 -33.519531 19.78125 -31.625 C 18.269531 -29.726562 17.515625 -27.078125 17.515625 -23.671875 L 17.515625 0 L 5.671875 0 L 5.671875 -43.796875 L 13.953125 -43.796875 L 16.140625 -38.359375 C 17.703125 -40.304688 19.628906 -41.875 21.921875 -43.0625 C 24.222656 -44.25 26.675781 -44.84375 29.28125 -44.84375 C 32.03125 -44.84375 34.515625 -44.21875 36.734375 -42.96875 C 38.953125 -41.726562 40.679688 -40.003906 41.921875 -37.796875 C 43.441406 -39.953125 45.390625 -41.664062 47.765625 -42.9375 C 50.140625 -44.207031 52.707031 -44.84375 55.46875 -44.84375 Z M 55.46875 -44.84375 "/></g></g></g><g fill="#6c5ce7" fill-opacity="1"><g transform="translate(583.26329, 72.167395)"><g><path d="M 48.171875 -22.0625 C 48.171875 -20.925781 48.085938 -19.765625 47.921875 -18.578125 L 14.84375 -18.578125 C 15.320312 -15.597656 16.507812 -13.3125 18.40625 -11.71875 C 20.300781 -10.125 22.679688 -9.328125 25.546875 -9.328125 C 27.597656 -9.328125 29.429688 -9.769531 31.046875 -10.65625 C 32.671875 -11.550781 33.921875 -12.785156 34.796875 -14.359375 L 47.28125 -14.359375 C 45.65625 -9.597656 42.894531 -5.8125 39 -3 C 35.113281 -0.1875 30.628906 1.21875 25.546875 1.21875 C 21.222656 1.21875 17.34375 0.207031 13.90625 -1.8125 C 10.476562 -3.84375 7.773438 -6.601562 5.796875 -10.09375 C 3.828125 -13.582031 2.84375 -17.515625 2.84375 -21.890625 C 2.84375 -26.273438 3.828125 -30.207031 5.796875 -33.6875 C 7.773438 -37.175781 10.476562 -39.929688 13.90625 -41.953125 C 17.34375 -43.984375 21.222656 -45 25.546875 -45 C 30.035156 -45 33.984375 -43.957031 37.390625 -41.875 C 40.796875 -39.800781 43.441406 -37.035156 45.328125 -33.578125 C 47.222656 -30.117188 48.171875 -26.28125 48.171875 -22.0625 Z M 25.546875 -34.953125 C 22.898438 -34.953125 20.671875 -34.222656 18.859375 -32.765625 C 17.046875 -31.304688 15.816406 -29.28125 15.171875 -26.6875 L 36.328125 -26.6875 C 34.597656 -32.195312 31.003906 -34.953125 25.546875 -34.953125 Z M 25.546875 -34.953125 "/></g></g></g><path fill="#5e17eb" d="M 71.378906 21.128906 L 26.359375 21.128906 C 25.988281 21.132812 25.625 21.167969 25.261719 21.242188 C 24.898438 21.316406 24.546875 21.421875 24.207031 21.5625 C 23.867188 21.707031 23.542969 21.878906 23.234375 22.085938 C 22.929688 22.289062 22.644531 22.523438 22.382812 22.785156 C 22.121094 23.046875 21.890625 23.328125 21.683594 23.636719 C 21.476562 23.941406 21.304688 24.265625 21.164062 24.609375 C 21.019531 24.949219 20.914062 25.300781 20.839844 25.660156 C 20.769531 26.023438 20.730469 26.390625 20.730469 26.757812 L 20.730469 71.78125 C 20.730469 72.148438 20.769531 72.515625 20.839844 72.878906 C 20.914062 73.238281 21.019531 73.589844 21.164062 73.933594 C 21.304688 74.273438 21.476562 74.597656 21.683594 74.902344 C 21.890625 75.210938 22.121094 75.496094 22.382812 75.753906 C 22.644531 76.015625 22.929688 76.25 23.234375 76.453125 C 23.542969 76.660156 23.867188 76.832031 24.207031 76.976562 C 24.546875 77.117188 24.898438 77.226562 25.261719 77.296875 C 25.625 77.371094 25.988281 77.40625 26.359375 77.410156 L 57.3125 77.410156 L 57.3125 63.339844 C 57.3125 62.96875 57.347656 62.605469 57.421875 62.242188 C 57.496094 61.878906 57.601562 61.527344 57.742188 61.1875 C 57.886719 60.847656 58.058594 60.523438 58.265625 60.214844 C 58.46875 59.910156 58.703125 59.625 58.964844 59.363281 C 59.226562 59.101562 59.507812 58.871094 59.816406 58.664062 C 60.121094 58.460938 60.445312 58.285156 60.789062 58.144531 C 61.128906 58.003906 61.480469 57.894531 61.839844 57.820312 C 62.203125 57.75 62.570312 57.710938 62.9375 57.710938 L 77.007812 57.710938 L 77.007812 26.757812 C 77.007812 26.390625 76.96875 26.023438 76.898438 25.660156 C 76.824219 25.300781 76.71875 24.949219 76.574219 24.609375 C 76.433594 24.265625 76.257812 23.941406 76.054688 23.636719 C 75.847656 23.328125 75.617188 23.046875 75.355469 22.785156 C 75.09375 22.523438 74.808594 22.289062 74.503906 22.085938 C 74.195312 21.878906 73.871094 21.707031 73.53125 21.5625 C 73.191406 21.421875 72.839844 21.316406 72.476562 21.242188 C 72.113281 21.167969 71.75 21.132812 71.378906 21.128906 Z M 65.300781 42.222656 L 43.6875 63.835938 L 31.617188 65.785156 L 34.78125 54.929688 L 56.394531 33.316406 C 56.660156 33.054688 56.964844 32.851562 57.308594 32.707031 C 57.652344 32.566406 58.011719 32.492188 58.382812 32.492188 C 58.757812 32.492188 59.117188 32.566406 59.460938 32.707031 C 59.804688 32.851562 60.109375 33.054688 60.375 33.316406 L 65.300781 38.242188 C 65.5625 38.507812 65.765625 38.8125 65.910156 39.15625 C 66.054688 39.5 66.125 39.859375 66.125 40.234375 C 66.125 40.605469 66.054688 40.964844 65.910156 41.308594 C 65.765625 41.65625 65.5625 41.957031 65.300781 42.222656 Z M 65.300781 42.222656 " fill-opacity="1" fill-rule="nonzero"/><g clip-path="url(#eeb93dd8f9)"><path fill="#6c5ce7" d="M 71.378906 18.316406 L 67.855469 18.316406 C 67.609375 17.597656 67.269531 16.925781 66.835938 16.300781 C 66.402344 15.675781 65.890625 15.121094 65.300781 14.640625 C 64.710938 14.160156 64.0625 13.769531 63.363281 13.472656 C 62.664062 13.171875 61.9375 12.976562 61.183594 12.882812 L 15.960938 7.328125 C 15.429688 7.265625 14.894531 7.253906 14.359375 7.296875 C 13.824219 7.335938 13.300781 7.429688 12.785156 7.574219 C 12.265625 7.71875 11.769531 7.910156 11.292969 8.152344 C 10.8125 8.394531 10.363281 8.679688 9.941406 9.011719 C 9.515625 9.339844 9.128906 9.707031 8.78125 10.113281 C 8.429688 10.519531 8.121094 10.957031 7.859375 11.421875 C 7.59375 11.890625 7.375 12.375 7.207031 12.886719 C 7.039062 13.394531 6.921875 13.914062 6.851562 14.445312 L 1.300781 59.667969 C 1.238281 60.199219 1.222656 60.734375 1.265625 61.269531 C 1.304688 61.800781 1.398438 62.328125 1.542969 62.84375 C 1.683594 63.363281 1.878906 63.859375 2.121094 64.339844 C 2.359375 64.816406 2.648438 65.269531 2.976562 65.691406 C 3.308594 66.113281 3.675781 66.5 4.082031 66.851562 C 4.488281 67.199219 4.925781 67.507812 5.390625 67.773438 C 5.859375 68.039062 6.347656 68.253906 6.855469 68.421875 C 7.363281 68.589844 7.886719 68.707031 8.417969 68.773438 L 17.917969 69.941406 L 17.917969 71.78125 C 17.917969 72.335938 17.972656 72.882812 18.082031 73.425781 C 18.1875 73.96875 18.347656 74.496094 18.5625 75.007812 C 18.773438 75.523438 19.035156 76.007812 19.34375 76.46875 C 19.648438 76.929688 20 77.355469 20.390625 77.746094 C 20.785156 78.140625 21.210938 78.488281 21.671875 78.796875 C 22.132812 79.105469 22.617188 79.363281 23.128906 79.578125 C 23.640625 79.789062 24.167969 79.949219 24.710938 80.058594 C 25.253906 80.167969 25.804688 80.222656 26.359375 80.222656 L 60.125 80.222656 C 60.902344 80.222656 61.566406 79.949219 62.113281 79.398438 L 78.996094 62.515625 C 79.546875 61.964844 79.820312 61.300781 79.820312 60.523438 L 79.820312 26.757812 C 79.820312 26.203125 79.765625 25.65625 79.65625 25.113281 C 79.550781 24.570312 79.390625 24.042969 79.175781 23.53125 C 78.964844 23.019531 78.703125 22.53125 78.394531 22.070312 C 78.089844 21.609375 77.738281 21.183594 77.347656 20.792969 C 76.953125 20.398438 76.527344 20.050781 76.066406 19.742188 C 75.605469 19.433594 75.121094 19.175781 74.609375 18.960938 C 74.097656 18.75 73.570312 18.589844 73.027344 18.480469 C 72.484375 18.371094 71.933594 18.316406 71.378906 18.316406 Z M 17.917969 26.757812 L 17.917969 64.269531 L 9.105469 63.1875 C 8.769531 63.144531 8.457031 63.042969 8.164062 62.875 C 7.867188 62.710938 7.617188 62.492188 7.410156 62.226562 C 7.203125 61.960938 7.054688 61.667969 6.960938 61.34375 C 6.871094 61.015625 6.847656 60.6875 6.886719 60.351562 L 12.441406 15.132812 C 12.476562 14.824219 12.570312 14.535156 12.714844 14.257812 C 12.859375 13.984375 13.046875 13.742188 13.28125 13.539062 C 13.511719 13.332031 13.773438 13.171875 14.0625 13.0625 C 14.355469 12.953125 14.65625 12.898438 14.964844 12.898438 C 15.070312 12.894531 15.171875 12.902344 15.277344 12.914062 L 59.265625 18.316406 L 26.359375 18.316406 C 25.804688 18.316406 25.253906 18.371094 24.710938 18.480469 C 24.167969 18.589844 23.640625 18.75 23.128906 18.960938 C 22.617188 19.175781 22.132812 19.433594 21.671875 19.742188 C 21.210938 20.050781 20.785156 20.398438 20.390625 20.792969 C 20 21.183594 19.648438 21.609375 19.34375 22.070312 C 19.035156 22.53125 18.773438 23.019531 18.5625 23.53125 C 18.347656 24.042969 18.1875 24.570312 18.082031 25.113281 C 17.972656 25.65625 17.917969 26.203125 17.917969 26.757812 Z M 60.125 73.429688 L 60.125 63.339844 C 60.125 62.964844 60.195312 62.605469 60.339844 62.261719 C 60.484375 61.917969 60.6875 61.613281 60.949219 61.351562 C 61.214844 61.085938 61.519531 60.882812 61.863281 60.738281 C 62.207031 60.597656 62.566406 60.527344 62.9375 60.523438 L 73.027344 60.523438 Z M 74.195312 54.898438 L 62.9375 54.898438 C 62.382812 54.898438 61.835938 54.953125 61.292969 55.0625 C 60.75 55.167969 60.222656 55.332031 59.710938 55.542969 C 59.199219 55.753906 58.710938 56.015625 58.25 56.324219 C 57.789062 56.632812 57.363281 56.980469 56.972656 57.371094 C 56.582031 57.765625 56.230469 58.191406 55.921875 58.652344 C 55.613281 59.113281 55.355469 59.597656 55.140625 60.109375 C 54.929688 60.621094 54.769531 61.148438 54.660156 61.691406 C 54.550781 62.234375 54.496094 62.785156 54.496094 63.339844 L 54.496094 74.59375 L 26.359375 74.59375 C 25.984375 74.59375 25.625 74.523438 25.28125 74.378906 C 24.9375 74.238281 24.632812 74.03125 24.371094 73.769531 C 24.105469 73.503906 23.902344 73.203125 23.757812 72.855469 C 23.617188 72.511719 23.542969 72.152344 23.542969 71.78125 L 23.542969 26.757812 C 23.542969 26.386719 23.617188 26.027344 23.757812 25.683594 C 23.902344 25.335938 24.105469 25.035156 24.371094 24.769531 C 24.632812 24.507812 24.9375 24.304688 25.28125 24.160156 C 25.625 24.015625 25.984375 23.945312 26.359375 23.945312 L 71.378906 23.945312 C 71.753906 23.945312 72.113281 24.015625 72.457031 24.160156 C 72.800781 24.300781 73.105469 24.507812 73.367188 24.769531 C 73.632812 25.035156 73.835938 25.335938 73.980469 25.683594 C 74.121094 26.027344 74.195312 26.386719 74.195312 26.757812 Z M 62.363281 31.328125 C 62.101562 31.066406 61.820312 30.832031 61.511719 30.628906 C 61.203125 30.421875 60.878906 30.25 60.539062 30.109375 C 60.195312 29.96875 59.84375 29.859375 59.484375 29.789062 C 59.121094 29.714844 58.753906 29.679688 58.382812 29.679688 C 58.015625 29.679688 57.648438 29.714844 57.285156 29.789062 C 56.925781 29.859375 56.574219 29.96875 56.230469 30.109375 C 55.890625 30.25 55.566406 30.421875 55.257812 30.628906 C 54.949219 30.832031 54.667969 31.066406 54.40625 31.328125 L 32.789062 52.941406 C 32.449219 53.28125 32.214844 53.683594 32.078125 54.144531 L 28.917969 65 C 28.855469 65.226562 28.820312 65.457031 28.8125 65.695312 C 28.808594 65.929688 28.832031 66.164062 28.886719 66.394531 C 28.9375 66.625 29.019531 66.847656 29.125 67.058594 C 29.234375 67.265625 29.367188 67.460938 29.523438 67.636719 C 29.679688 67.816406 29.855469 67.96875 30.050781 68.105469 C 30.246094 68.238281 30.457031 68.34375 30.679688 68.425781 C 30.898438 68.503906 31.128906 68.558594 31.363281 68.582031 C 31.601562 68.605469 31.835938 68.597656 32.066406 68.5625 L 44.136719 66.613281 C 44.734375 66.515625 45.246094 66.253906 45.675781 65.824219 L 67.289062 44.210938 C 67.550781 43.949219 67.785156 43.667969 67.988281 43.359375 C 68.195312 43.050781 68.367188 42.726562 68.507812 42.386719 C 68.648438 42.042969 68.753906 41.691406 68.828125 41.332031 C 68.898438 40.96875 68.9375 40.601562 68.9375 40.234375 C 68.9375 39.863281 68.898438 39.496094 68.828125 39.136719 C 68.753906 38.773438 68.648438 38.421875 68.507812 38.078125 C 68.367188 37.738281 68.195312 37.414062 67.988281 37.105469 C 67.785156 36.800781 67.550781 36.515625 67.289062 36.253906 Z M 36.828125 57.960938 L 40.386719 61.519531 L 35.566406 62.296875 Z M 45.183594 58.359375 L 40.257812 53.433594 L 58.386719 35.308594 L 63.3125 40.234375 Z M 45.183594 58.359375 " fill-opacity="1" fill-rule="nonzero"/></g></svg>