<svg width="352" height="354" viewBox="0 0 352 354" fill="none" xmlns="http://www.w3.org/2000/svg"><g clip-path="url(#a)"><path d="M174.1 137.6h-73a5 5 0 0 0-5 5v39.2a5 5 0 0 0 5 5h73a5 5 0 0 0 5-5v-39.2a5 5 0 0 0-5-5Z" fill="#C084FC"/><path d="m140.6 202.7 13-30.3h-32l12.9 30.3c1.2 2.7 5 2.7 6.1 0Z" fill="#C084FC"/><path d="M384.6 286.8h-73a5 5 0 0 0-5 5v39.3a5 5 0 0 0 5 5h73a5 5 0 0 0 5-5v-39.3a5 5 0 0 0-5-5Z" fill="#E9D5FF"/><path d="m351.2 352 12.9-30.3h-32l13 30.3c1 2.7 5 2.7 6 0ZM173.7 240.1a7.6 7.6 0 0 0 7.4 9.3h194.2c5 0 9.4-3.4 10.5-8.3l30-126.4H203.5l-29.8 125.4Z" fill="#E9D5FF"/><path d="M408.4 105.4H214.2c-5 0-9.3 3.5-10.5 8.4l-.2 1h212.3a7.6 7.6 0 0 0-7.4-9.4Z" fill="#E9D5FF"/><path d="M106 148h63.3a3 3 0 0 1 0 5.8h-63.4a3 3 0 1 1 0-5.8Z" fill="#59C7B2"/><path opacity=".8" d="M106 160.4h63.3a3 3 0 0 1 0 5.9h-63.4a3 3 0 1 1 0-5.9ZM106 172.9h63.3a3 3 0 0 1 0 5.8h-63.4a3 3 0 1 1 0-5.8Z" fill="#59C7B2"/><path d="M317 296h63.3a3 3 0 0 1 0 5.8h-63.4a3 3 0 1 1 0-5.8Z" fill="#59C7B2"/><path opacity=".8" d="M317 308.4h63.3a3 3 0 0 1 0 5.9h-63.4a3 3 0 1 1 0-5.9ZM317 320.9h63.3a3 3 0 0 1 0 5.8h-63.4a3 3 0 1 1 0-5.8Z" fill="#A7F3D0"/><path d="M148.7 215.1a7.6 7.6 0 0 0 7.4 9.3h194.1c5 0 9.4-3.4 10.6-8.3l30-126.4H178.3l-29.7 125.4Z" fill="#59C7B2"/><path d="M383.4 80.4H189.2c-5 0-9.4 3.4-10.5 8.3l-.3 1h212.3a7.6 7.6 0 0 0-7.3-9.3ZM366.3 109.2H192.8a2 2 0 0 0 0 4.2h173.5a2 2 0 1 0 0-4.2Z" fill="#379986"/><path d="M347.5 118.9H190.7a2 2 0 1 0 0 4.1h156.8a2 2 0 0 0 0-4.1Z" fill="#A855F7"/><path d="M352.8 128.4h-165a2 2 0 1 0 0 4.2h165a2 2 0 1 0 0-4.2ZM300.2 138h-115a2 2 0 1 0 0 4.2h115a2 2 0 1 0 0-4.2ZM348 147.5H183a2 2 0 1 0 0 4.2h165a2 2 0 1 0 0-4.2ZM353.7 157.3H180.2a2 2 0 1 0 0 4.2h173.5a2 2 0 1 0 0-4.2ZM334.8 167H178.1a2 2 0 1 0 0 4.2h156.7a2 2 0 1 0 0-4.2ZM341 176.5H176a2 2 0 1 0 0 4.2h165a2 2 0 1 0 0-4.2ZM288.4 186.1h-115a2 2 0 0 0 0 4.2h115a2 2 0 1 0 0-4.2Z" fill="#379986"/><path d="M336.3 195.7H171.2a2 2 0 1 0 0 4.1h165a2 2 0 1 0 0-4.1Z" fill="#A855F7"/><path d="M27.8 148a7.6 7.6 0 0 0 7.3 9.3h194.2c5 0 9.4-3.5 10.6-8.3l30-126.4H57.4L27.8 148Z" fill="#E9D5FF"/><path d="M262.5 13.3H68.3c-5 0-9.4 3.4-10.6 8.3l-.2 1h212.3a7.6 7.6 0 0 0-7.3-9.3ZM245.4 42H71.9a2 2 0 1 0 0 4.3h173.5a2 2 0 1 0 0-4.2ZM226.5 51.7H69.8a2 2 0 1 0 0 4.2h156.7a2 2 0 1 0 0-4.2ZM232 61.3H66.7a2 2 0 1 0 0 4.2H232a2 2 0 1 0 0-4.2ZM179.3 70.9h-115a2 2 0 1 0 0 4.1h115a2 2 0 1 0 0-4.1ZM227.1 80.4h-165a2 2 0 1 0 0 4.2h165a2 2 0 1 0 0-4.2ZM232.7 90.2H59.3a2 2 0 1 0 0 4.2h173.4a2 2 0 1 0 0-4.2ZM214 99.9H57.1a2 2 0 1 0 0 4.1h156.7a2 2 0 1 0 0-4.1ZM220.1 109.4h-165a2 2 0 1 0 0 4.2h165a2 2 0 1 0 0-4.2ZM167.5 119h-115a2 2 0 1 0 0 4.1h115a2 2 0 1 0 0-4.1ZM215.3 128.5h-165a2 2 0 1 0 0 4.2h165a2 2 0 1 0 0-4.2Z" fill="#C084FC"/><path d="M223.7 3.8c-7.3 6.8 14.4-.3 26 13.5 11.5 13.9 4.5 32 48.9 33.9 37.5 1.5 50.3 41.3 50.3 41.3V19.4s-23.7 5.3-41.2-4.2c-21.2-11.4-27.2-17.4-51-12 0 0-24.3-7.6-33 .5Z" fill="#379986"/><path d="M263.5 40.7c8.6 5.7 12.4 4 37.5-4.7s42.5-2.6 47.9 7.7" stroke="#59C7B2" stroke-linecap="round" stroke-linejoin="round"/><path d="M223.7 3.8c-7.3 6.8 14.4-.3 26 13.5 6.4 7.7 7.1 16.6 13.8 23.4 8.5 5.7 12.4 4 37.5-4.7 3.8-1.3 7.4-2.3 10.8-3-27.6-1.1-26.3-16.6-55.1-29.7 0 0-24.3-7.7-33 .4Z" fill="#59C7B2"/><path d="M291.8 272c-1-4 14 1.7 31.3-10.6 14.4-10 21.7-1.4 25.8 1.3v28c-.7-7.6-4.8-22.7-20-15.6-11.4 5.4-36-1.4-37.2-3Z" fill="#379986"/><path d="M322.8 270c-7 2.5-16.2 6-31 2-3.7-1.2-2 3.7 13.1 6.8 15.2 3 44-8.6 44 28.3v-16.3s-11.2-25.7-26-20.7Z" fill="#59C7B2"/><path d="M333.2 270.7c-13 4.5-17 9-28.3 8 11.6 3 44-8.6 44 28.4v-16.3s-.8-25-15.7-20Z" fill="#379986"/><path d="m349.4 306.7-.5-16s-.8-25-15.7-20c-13 4.5-16.3 8.4-27.6 7.5" stroke="#59C7B2" stroke-linecap="round" stroke-linejoin="round"/><path d="M78.1 31.9h-73a5 5 0 0 0-5.1 5V76a5 5 0 0 0 5 5h73.1a5 5 0 0 0 5-5V37a5 5 0 0 0-5-5Z" fill="#59C7B2"/><path d="m44.6 97 13-30.3h-32L38.5 97c1.1 2.7 5 2.7 6.1 0Z" fill="#59C7B2"/><g opacity=".8"><path d="M59.5 66.6v-2.2a4.5 4.5 0 0 1 9 0v2.2a4.5 4.5 0 0 1-9 0ZM45 66.6V52a4.5 4.5 0 0 1 9 0v14.7a4.5 4.5 0 1 1-9 0Z" fill="#C084FC"/><path d="M30 66.6v-9.3a4.5 4.5 0 1 1 9 0v9.3a4.5 4.5 0 0 1-9 0ZM15 66.6V44.5a4.5 4.5 0 0 1 9 0v22.1a4.5 4.5 0 0 1-9 0Z" fill="#379986"/></g><path d="m235 302-1-3.9a20 20 0 0 0-14.1-14L216 283l3.9-1a20 20 0 0 0 14-14.1l1.1-3.9 1 3.9a20 20 0 0 0 14.1 14l3.9 1.1-3.9 1a20 20 0 0 0-14 14.1L235 302Z" fill="#9333EA"/><path d="m206 167-1.3-4.7a24.2 24.2 0 0 0-17-17L183 144l4.7-1.3a24.2 24.2 0 0 0 17-17l1.3-4.7 1.3 4.7a24.2 24.2 0 0 0 17 17l4.7 1.3-4.7 1.3a24.2 24.2 0 0 0-17 17L206 167ZM312 160l-.8-2.9c-1.3-5-5.3-9-10.3-10.3l-2.9-.8 2.9-.8c5-1.3 9-5.3 10.3-10.3l.8-2.9.8 2.9c1.3 5 5.3 9 10.3 10.3l2.9.8-2.9.8c-5 1.3-9 5.3-10.3 10.3l-.8 2.9Z" fill="#fff"/></g><defs><clipPath id="a"><path fill="#fff" d="M0 0h416v354H0z"/></clipPath></defs></svg>